<svg width="174" height="33" viewBox="0 0 174 33" fill="none" xmlns="http://www.w3.org/2000/svg"><path fill-rule="evenodd" clip-rule="evenodd" d="M98.8866 15.3846C97.9436 16.8491 96.5052 18.0137 94.58 18.8785H94.5887L101.361 31.6733L113.071 0.213867H119.198L131.21 32.2979H124.178L121.953 25.6881H110.363L108.16 32.2979H94.4323L88.4179 20.5516H80.4653L82.347 15.1977H88.4831C90.1431 15.1977 91.4251 14.7718 92.3377 13.9288C93.2459 13.0814 93.7022 11.9472 93.7022 10.4349C93.7022 8.92257 93.2676 7.73186 92.4116 6.86708C91.5555 6.00229 90.2344 5.56772 88.457 5.56772H85.7279L87.6096 0.213867H88.457C92.2464 0.213867 95.171 1.05693 97.2222 2.74739C99.2777 4.43785 100.308 6.82362 100.308 9.90904C100.308 12.0993 99.8339 13.9244 98.8866 15.3846ZM120.167 20.3343H112.145L116.135 8.32287L120.167 20.3343Z" fill="#505050"/><path d="M0 0.213867V5.56772H9.69517V32.2979H16.3049V5.56772H25.396L34.8696 32.9019L38.0072 24.0107L30.8759 0.213867H0Z" fill="#505050"/><path d="M133.747 32.2979H140.357V0.213867H133.747V32.2979Z" fill="#505050"/><path d="M167.205 32.2979H173.819V0.213867H167.231V21.3685L154.337 0.213867H147.727V32.2979H154.337V11.1867L167.205 32.2979Z" fill="#505050"/><path d="M70.4426 0.183594L59.1525 32.298H52.5906L63.9241 0.183594H70.4426ZM58.3442 0.183594L47.0499 32.298H40.4879L51.8214 0.183594H58.3442ZM82.5452 0.183594L71.2552 32.298H64.6933L76.0267 0.183594H82.5452Z" fill="#CF3476"/></svg>