<svg width="1370" height="331" viewBox="0 0 1370 331" fill="none" xmlns="http://www.w3.org/2000/svg">
<path d="M720.385 83.6722L691.264 83.6659L691.298 121.825L719.926 121.88C719.847 161.178 720.071 243.647 719.926 264.815C719.733 292.96 729.973 302.545 735.552 307.987C739.099 311.446 748.222 319.694 764.758 323.572C771.996 325.27 783.991 325.005 795.056 325.005C805.104 325.005 812.16 325.005 822.173 325.005V283.005L795.056 283.25C777.989 283.25 770.524 280.259 769.237 262.434L769.211 121.495L824.192 121.499L824.274 83.6521L769.488 83.59L769.466 27.3986L720.278 27.5923L720.385 83.6722Z" fill="#1A1919"/>
<path fill-rule="evenodd" clip-rule="evenodd" d="M414.963 325L529.195 0.00012207L585.851 0.000565327L700.963 325H648.257L615.582 226.023L498.143 226.175L465.693 325H414.963ZM510.675 187.423H601.378L556.027 46.4348L510.675 187.423Z" fill="#1A1919"/>
<path d="M1271.74 327.084C1210.97 327.084 1171.75 295.597 1169.15 242.099V237.069L1215.11 237.292V242.321C1216.48 275.134 1237.15 292.156 1272.31 292.156C1301.39 292.156 1319.97 276.49 1319.97 254.085C1319.97 199.672 1171.09 246.768 1171.09 149.831C1171.09 103.192 1207.55 78.5001 1264.41 78.5001C1319.1 78.5001 1357.64 103.593 1361.55 152.519L1361.82 157.549L1316.6 157.448L1316.03 152.876C1312.56 127.727 1292.62 112.337 1263.54 112.337C1237.5 112.337 1218.5 122.196 1218.5 145.516C1218.55 205.373 1369.36 153.187 1369.45 249.512C1369.45 297.066 1327.3 327.084 1271.74 327.084Z" fill="#1A1919"/>
<path d="M855.514 0.00012207H904.217V325.018H855.514V0.00012207Z" fill="#1A1919"/>
<path d="M1012.89 326.873C965.059 326.873 933.451 303.767 933.451 258.84C933.451 206.492 972.367 189.292 1021.16 182.529C1073.82 174.799 1091.02 170.742 1091.45 152.313C1090.81 131.526 1076.85 117.397 1040.14 117.397C1009.63 117.561 992.239 130.606 989.824 158.625L989.487 163.456H942.005C942.005 114.19 974.286 77.9971 1039.46 77.8673C1105.64 77.8673 1140.21 108.58 1140.21 161.236V226.903V325.027H1091.96L1092.64 294.66C1074.37 315.837 1053.46 326.873 1012.89 326.873ZM1023.11 290.511C1067.07 290.028 1085.19 268.714 1091.17 235.524L1092.52 202.141C1075.73 208.316 1061.34 210.102 1029.93 215.899C996.601 221.213 984.065 231.337 983.307 253.327C983.762 271.828 991.709 290.511 1023.11 290.511Z" fill="#1A1919"/>
<path d="M106.219 330.191C164.395 330.191 211.555 283.03 211.555 224.855C211.555 166.679 164.395 119.519 106.219 119.519C48.0434 119.519 0.882812 166.679 0.882812 224.855C0.882812 283.03 48.0434 330.191 106.219 330.191Z" fill="#1A1919"/>
<path d="M186.027 0.00109863H332.095L332.038 324.981H256.767L186.027 0.00109863Z" fill="#1A1919"/>
<path fill-rule="evenodd" clip-rule="evenodd" d="M6.41992 0V118.414H7.69004C82.6482 118.414 145.93 68.4457 166.046 0H6.41992Z" fill="#1A1919"/>
</svg>
