<svg xmlns="http://www.w3.org/2000/svg" width="488" height="110" fill="none"><path fill="#FF6D1B" d="M440.848 9.333q1.532 1.427 4.361 4.611 2.711 3.184 6.248 7.357a345 345 0 0 1 5.305-8.784 327 327 0 0 0 3.536-6.039 24 24 0 0 1 3.419-4.501Q465.603 0 468.432 0q1.768 0 3.065 1.208 1.179 1.208 1.178 2.855 0 2.525-2.711 8.454-2.711 6.039-6.601 13.176 9.312.11 14.735 1.207 5.305 1.097 7.662 2.636Q488 31.072 488 32.72q0 2.196-3.772 3.952-3.773 1.867-12.26 1.867h-7.191q3.89 5.16 6.484 9.223 2.475 4.062 2.475 5.38 0 2.855-1.296 4.392-1.297 1.647-3.419 1.647-2.004 0-4.126-.769-2.122-.768-4.125-3.623a266 266 0 0 0-3.419-4.502 877 877 0 0 0-4.715-6.039q-5.187 8.565-7.663 11.858a24 24 0 0 1-3.182 3.623q-1.887 1.648-4.48 1.648-1.886 0-2.829-1.648-1.06-1.536-1.061-3.513c-.001-1.977.825-3.66 2.476-7.027q2.357-5.05 5.894-11.309-8.37-.439-13.085-1.208-4.716-.658-6.837-1.537-2.123-.768-2.711-1.647-.59-.768-.59-1.537 0-.66.59-1.537.588-.77 2.593-1.647 1.885-.768 6.012-1.427 4.126-.66 11.316-1.098-3.771-5.271-6.365-9.333c-2.594-4.062-2.594-4.538-2.594-5.49q0-2.085 1.415-3.623 1.415-1.537 3.536-1.537 1.769 0 3.183.988a65 65 0 0 1 2.594 2.086"/><path fill="#4A1B00" fill-rule="evenodd" d="M0 108h18.64l8.474-23.937h38.552L73.998 108h19.064L55.781 4.463h-18.5zm32.339-39.234L44.2 35.34a73 73 0 0 0 1.271-4.25q.705-2.265.989-3.682.14 1.558.847 3.683.706 2.125 1.27 4.249L60.44 68.766zm320.295 35.127q6.496 5.949 17.511 5.949 8.191 0 14.546-3.4 6.495-3.399 8.755-8.781L394.717 108h15.11V65.51q0-9.774-3.671-16.29-3.672-6.656-10.451-9.914-6.777-3.4-16.24-3.4-9.32 0-16.522 3.117-7.06 3.116-11.015 8.781-3.813 5.525-3.813 13.173h14.687q0-5.525 4.095-8.499 4.095-3.116 11.721-3.116 4.378 0 7.626 1.417 3.248 1.275 4.943 4.249 1.835 2.833 1.835 7.648v1.558l-20.9 1.7q-12.427.991-19.205 6.799-6.638 5.666-6.638 15.296 0 9.774 6.355 15.864m35.728-11.614q-4.66 4.532-12.709 4.532-5.65 0-8.756-2.408-3.107-2.408-3.107-7.082 0-4.249 3.39-6.798 3.389-2.69 11.438-3.4l14.546-1.133v3.683q0 8.073-4.802 12.606" clip-rule="evenodd"/><path fill="#4A1B00" d="M345.193 53.752V37.748q-2.118-.566-3.954-.708a48 48 0 0 0-3.672-.141q-8.331 0-13.557 4.39-3.56 2.992-5.349 7.166l-1.005-10.282h-16.24V108h17.228V74.007q0-10.198 5.366-15.156 5.366-5.099 14.828-5.099z"/><path fill="#4A1B00" fill-rule="evenodd" d="M217.907 72.871q0-10.905 4.801-19.12 4.802-8.357 13.274-13.032 8.474-4.674 19.206-4.674 10.874 0 19.206 4.674 8.472 4.675 13.274 13.031 4.801 8.215 4.801 19.121t-4.801 19.263q-4.802 8.215-13.274 12.889-8.332 4.674-19.206 4.674-10.732 0-19.206-4.674-8.472-4.673-13.274-12.89-4.801-8.355-4.801-19.262m17.228 0q0 6.375 2.542 11.19 2.683 4.815 7.061 7.506 4.52 2.691 10.45 2.692 5.93 0 10.45-2.692 4.519-2.691 7.061-7.506t2.542-11.19q0-6.514-2.542-11.19-2.542-4.815-7.061-7.506t-10.45-2.691-10.45 2.691q-4.378 2.69-7.061 7.507-2.542 4.674-2.542 11.19Z" clip-rule="evenodd"/><path fill="#4A1B00" d="M217.395 53.752V37.748q-2.118-.566-3.954-.708a48 48 0 0 0-3.672-.141q-8.331 0-13.557 4.39-3.56 2.992-5.349 7.166l-1.005-10.282h-16.24V108h17.228V74.007q0-10.198 5.366-15.156 5.366-5.099 14.828-5.099zm-74.09-15.717h17.228v69.969h-15.958l-1.27-9.348q-3.107 4.957-9.321 8.073t-13.274 3.116q-12.004 0-18.782-7.648-6.78-7.65-6.779-20.396V38.035h17.229V75.71q0 9.915 3.813 14.306 3.813 4.39 11.015 4.39 8.19 0 12.144-4.815 3.954-4.957 3.955-14.872z"/></svg>